<?xml version="1.0" encoding="utf-8"?>
<!-- Generator: Adobe Illustrator 16.0.0, SVG Export Plug-In . SVG Version: 6.00 Build 0)  -->
<!DOCTYPE svg PUBLIC "-//W3C//DTD SVG 1.1//EN" "http://www.w3.org/Graphics/SVG/1.1/DTD/svg11.dtd">
<svg version="1.1" id="Layer_2" xmlns="http://www.w3.org/2000/svg" xmlns:xlink="http://www.w3.org/1999/xlink" x="0px" y="0px"
	 width="100px" height="100px" viewBox="0 0 100 100" enable-background="new 0 0 100 100" xml:space="preserve">
<path d="M92,3H8C5.239,3,3,5.239,3,8v84c0,2.761,2.239,5,5,5h84c2.761,0,5-2.239,5-5V8C97,5.239,94.761,3,92,3z M69.93,24.364
	l-7.226,0.003c-5.664,0-6.761,2.692-6.761,6.643v8.711h13.511L69.45,53.365H55.944v35.012H41.852V53.365H30.07V39.721h11.782V29.659
	c0-11.677,7.133-18.036,17.549-18.036L69.93,11.64V24.364z"/>
</svg>
