<?xml version="1.0" encoding="iso-8859-1"?>
<!-- Generator: Adobe Illustrator 16.0.0, SVG Export Plug-In . SVG Version: 6.00 Build 0)  -->
<!DOCTYPE svg PUBLIC "-//W3C//DTD SVG 1.1//EN" "http://www.w3.org/Graphics/SVG/1.1/DTD/svg11.dtd">
<svg version="1.1" id="Capa_1" xmlns="http://www.w3.org/2000/svg" xmlns:xlink="http://www.w3.org/1999/xlink" x="0px" y="0px"
	 width="24.184px" height="31.004px" viewBox="0 0 24.184 31.004" style="enable-background:new 0 0 24.184 31.004;"
	 xml:space="preserve">
<path style="fill:#000000;" d="M18.988,31.004v-4.512c0-0.938,0.757-1.701,1.697-1.701l3.498-0.1L18.988,31.004z"/>
<path style="fill:#000000;" d="M22.486,0H1.695C0.758,0,0,0.762,0,1.695v27.611c0,0.939,0.758,1.697,1.695,1.697h15.604v-6.02
	c0-0.936,0.764-1.695,1.699-1.695h5.186V1.695C24.184,0.762,23.426,0,22.486,0z M10.885,24.521l-4.328,4.674l-4.219-4.791h2.109
	v-6.779h4.326v6.896H10.885z"/>
<g>
</g>
<g>
</g>
<g>
</g>
<g>
</g>
<g>
</g>
<g>
</g>
<g>
</g>
<g>
</g>
<g>
</g>
<g>
</g>
<g>
</g>
<g>
</g>
<g>
</g>
<g>
</g>
<g>
</g>
</svg>
