<?xml version="1.0" encoding="iso-8859-1"?>
<!-- Generator: Adobe Illustrator 16.0.0, SVG Export Plug-In . SVG Version: 6.00 Build 0)  -->
<!DOCTYPE svg PUBLIC "-//W3C//DTD SVG 1.1//EN" "http://www.w3.org/Graphics/SVG/1.1/DTD/svg11.dtd">
<svg version="1.1" id="Capa_1" xmlns="http://www.w3.org/2000/svg" xmlns:xlink="http://www.w3.org/1999/xlink" x="0px" y="0px"
	 width="31.73px" height="29.897px" viewBox="0 0 31.73 29.897" style="enable-background:new 0 0 31.73 29.897;"
	 xml:space="preserve">
<path style="fill-rule:evenodd;clip-rule:evenodd;" d="M0,28.744h2.537V8.654H0V28.744z M28.549,8.654V0H15.871v8.654H10.91v20.09
	h20.82V8.654H28.549z M19.623,24.563h-2.447v-2.446h2.447V24.563z M19.623,20.517h-2.447v-2.444h2.447V20.517z M19.623,16.662
	h-2.447v-2.446h2.447V16.662z M24.139,24.563h-2.447v-2.446h2.447V24.563z M24.139,20.517h-2.447v-2.444h2.447V20.517z
	 M24.139,16.662h-2.447v-2.446h2.447V16.662z M28.652,24.563h-2.445v-2.446h2.445V24.563z M28.652,20.517h-2.445v-2.444h2.445
	V20.517z M28.652,16.662h-2.445v-2.446h2.445V16.662z M30.158,12.088H14.26V9.924h1.611v1.082h12.678V9.924h1.609V12.088z
	 M3.535,29.897h6.398V6.416H3.535V29.897z M26.865,2.41h-9.029V1.563h9.029V2.41z M26.865,4.667h-9.029V3.822h9.029V4.667z"/>
<g>
</g>
<g>
</g>
<g>
</g>
<g>
</g>
<g>
</g>
<g>
</g>
<g>
</g>
<g>
</g>
<g>
</g>
<g>
</g>
<g>
</g>
<g>
</g>
<g>
</g>
<g>
</g>
<g>
</g>
</svg>
