<?xml version="1.0" encoding="utf-8"?>
<!-- Generator: Adobe Illustrator 17.0.0, SVG Export Plug-In . SVG Version: 6.00 Build 0)  -->
<!DOCTYPE svg PUBLIC "-//W3C//DTD SVG 1.1//EN" "http://www.w3.org/Graphics/SVG/1.1/DTD/svg11.dtd">
<svg version="1.1" id="Capa_1" xmlns="http://www.w3.org/2000/svg" xmlns:xlink="http://www.w3.org/1999/xlink" x="0px" y="0px"
	 width="64px" height="64px" viewBox="0 0 64 64" enable-background="new 0 0 64 64" xml:space="preserve">
<g>
	<path d="M10.5,6.667v8.839L23.709,4.667H12.5C11.397,4.667,10.5,5.564,10.5,6.667z"/>
	<path d="M51.875,6.667c0-1.103-0.897-2-2-2H38.727l13.148,10.789V6.667z"/>
	<path d="M43.255,30.354l4.468,2.589c0.062,0.016,0.21,0.044,0.42,0.044c0.187,0,0.319-0.023,0.375-0.036l3.356-1.858V23.35
		c-0.712-0.089-1.379-0.357-1.913-0.795L31.218,7.175l-18.744,15.38c-0.549,0.451-1.239,0.72-1.974,0.8v7.353l1.307-0.656
		c1.384-0.695,3.021-1.062,4.734-1.062c2.053,0,4.05,0.533,5.624,1.502l3.001,1.85v-11.45c0-0.553,0.447-1,1-1h11.5
		c0.553,0,1,0.447,1,1v8.131C40.341,29.147,41.947,29.595,43.255,30.354z"/>
	<path d="M57.111,40.469l-7.711,4.27c-0.621,0.345-1.974,0.331-2.587-0.023l-4.524-2.621c-2.404-1.395-5.963-1.504-8.458-0.267
		l-5.982,2.971c-0.655,0.326-2.052,0.268-2.665-0.11l-4.029-2.483c-2.396-1.475-5.964-1.624-8.482-0.358l-8.726,4.38
		c-1.48,0.744-2.079,2.547-1.336,4.027c0.527,1.049,1.585,1.655,2.684,1.655c0.453,0,0.912-0.104,1.344-0.319l8.727-4.381
		c0.649-0.326,2.033-0.271,2.643,0.104l4.03,2.483c2.39,1.472,5.953,1.63,8.479,0.377l5.983-2.971
		c0.676-0.336,2.131-0.295,2.782,0.083l4.524,2.621c2.449,1.421,6.026,1.453,8.502,0.08l7.71-4.27
		c1.449-0.802,1.974-2.628,1.171-4.077C60.387,40.19,58.56,39.663,57.111,40.469z"/>
	<path d="M57.111,50.469l-7.711,4.27c-0.621,0.344-1.974,0.33-2.587-0.023l-4.524-2.621c-2.404-1.395-5.963-1.505-8.458-0.267
		l-5.982,2.971c-0.655,0.326-2.052,0.268-2.665-0.11l-4.029-2.483c-2.396-1.475-5.964-1.624-8.482-0.358l-8.726,4.38
		c-1.48,0.744-2.079,2.547-1.336,4.027c0.527,1.049,1.585,1.655,2.684,1.655c0.453,0,0.912-0.104,1.344-0.319l8.727-4.381
		c0.649-0.326,2.033-0.271,2.643,0.104l4.03,2.483c2.39,1.472,5.953,1.629,8.479,0.377l5.983-2.971
		c0.676-0.337,2.131-0.295,2.782,0.083l4.524,2.621c2.449,1.421,6.026,1.454,8.502,0.08l7.71-4.27
		c1.449-0.802,1.974-2.628,1.171-4.077C60.387,50.189,58.56,49.662,57.111,50.469z"/>
	<path d="M9.5,18.267l-0.896,0.735c-0.04,0.033-0.069,0.07-0.104,0.105c-0.655,0.63-0.655,1.554,0,2.184
		c0.036,0.035,0.065,0.072,0.104,0.105c0.258,0.211,0.568,0.348,0.896,0.424c0.185,0.043,0.373,0.072,0.563,0.072
		c0.147,0,0.293-0.016,0.437-0.041c0.374-0.066,0.731-0.216,1.022-0.455L31.218,5.234l19.696,16.161
		c0.275,0.226,0.61,0.368,0.961,0.44c0.164,0.033,0.33,0.056,0.498,0.056c0.169,0,0.337-0.023,0.502-0.057
		c0.35-0.072,0.683-0.214,0.956-0.439c0.017-0.014,0.028-0.03,0.044-0.044c0.741-0.649,0.741-1.657,0-2.306
		c-0.016-0.014-0.027-0.03-0.044-0.044l-0.956-0.785l-1-0.82L36.362,4.667l-1.219-1l-1.218-1l-1.248-1.024
		c-0.387-0.317-0.923-0.476-1.459-0.476c-0.536,0-1.072,0.159-1.459,0.476l-1.248,1.024l-1.218,1l-1.219,1L10.5,17.446L9.5,18.267z"
		/>
	<path d="M32.974,30.029c1.098-0.546,2.36-0.881,3.693-1.003v-7.135h-9.5v11.021L32.974,30.029z"/>
	<path d="M2.641,40.238c0.516,1.057,1.564,1.67,2.653,1.67c0.441,0,0.889-0.101,1.311-0.312l8.727-4.38
		c0.296-0.149,0.74-0.22,1.197-0.22c0.574,0,1.169,0.113,1.517,0.327l4.029,2.483c1.301,0.801,2.953,1.21,4.592,1.21
		c1.347,0,2.686-0.276,3.815-0.836l5.983-2.971c0.316-0.157,0.798-0.234,1.292-0.234c0.591,0,1.198,0.109,1.561,0.319l4.524,2.622
		c1.24,0.718,2.77,1.078,4.298,1.078c1.466,0,2.93-0.332,4.132-0.999l7.71-4.27c1.434-0.794,1.962-2.616,1.179-4.07
		c-0.537-0.998-1.551-1.563-2.598-1.563c-0.479,0-0.965,0.118-1.415,0.368l-3.289,1.821l-1.099,0.608l-3.323,1.84
		c-0.311,0.173-0.799,0.258-1.292,0.258c-0.52,0-1.044-0.095-1.367-0.281l-1.033-0.599l-3.491-2.022
		c-1.039-0.602-2.295-0.95-3.586-1.065c-0.298-0.026-0.596-0.053-0.896-0.053c-0.035,0-0.07,0.005-0.104,0.005
		c-0.335,0.003-0.669,0.022-1,0.059c-0.998,0.111-1.962,0.371-2.803,0.788L31.488,33l-2.014,1l-0.216,0.107l-1.377,0.684
		c-0.274,0.135-0.677,0.199-1.097,0.209c-0.034,0.001-0.065,0.008-0.1,0.008c-0.056,0-0.111-0.006-0.167-0.008
		c-0.267-0.01-0.529-0.042-0.768-0.098c-0.233-0.055-0.445-0.128-0.603-0.224l-0.925-0.57l-3.104-1.913
		c-1.297-0.798-2.942-1.205-4.575-1.205c-1.356,0-2.703,0.28-3.837,0.849l-2.052,1.03l-0.894,0.449L8.87,33.764l-4.89,2.455
		C2.515,36.953,1.915,38.753,2.641,40.238z"/>
</g>
</svg>
