<?xml version="1.0" encoding="utf-8"?>
<!-- Generator: Adobe Illustrator 16.0.0, SVG Export Plug-In . SVG Version: 6.00 Build 0)  -->
<!DOCTYPE svg PUBLIC "-//W3C//DTD SVG 1.1//EN" "http://www.w3.org/Graphics/SVG/1.1/DTD/svg11.dtd">
<svg version="1.1" id="Layer_5" xmlns="http://www.w3.org/2000/svg" xmlns:xlink="http://www.w3.org/1999/xlink" x="0px" y="0px"
	 width="100px" height="100px" viewBox="0 0 100 100" enable-background="new 0 0 100 100" xml:space="preserve">
<g>
	<path d="M44.321,72.813c-0.823,1.162-1.6,1.733-2.343,1.733c-0.495,0-0.777-0.292-0.866-0.866c-0.035-0.121-0.035-0.572-0.035-1.44
		V57.187h-3.704v16.166c0,1.443,0.125,2.422,0.328,3.041c0.371,1.036,1.193,1.52,2.387,1.52c1.361,0,2.76-0.823,4.233-2.512v2.231
		h3.707V57.187h-3.707V72.813z"/>
	<path d="M58.768,56.937c-1.361,0-2.632,0.745-3.83,2.218v-8.962h-3.704v27.44h3.704V75.65c1.238,1.531,2.512,2.263,3.83,2.263
		c1.473,0,2.466-0.777,2.959-2.298c0.248-0.866,0.377-2.229,0.377-4.12v-8.142c0-1.936-0.127-3.288-0.377-4.11
		C61.233,57.713,60.24,56.937,58.768,56.937z M58.396,71.787c0,1.847-0.541,2.759-1.61,2.759c-0.61,0-1.229-0.292-1.849-0.912
		V61.173c0.62-0.611,1.238-0.901,1.849-0.901c1.069,0,1.61,0.945,1.61,2.791V71.787z"/>
	<polygon points="23.919,54.055 28.275,54.055 28.275,77.632 32.396,77.632 32.396,54.055 36.834,54.055 36.834,50.192 
		23.919,50.192 	"/>
	<path d="M47.502,38.297c1.205,0,1.785-0.956,1.785-2.867v-8.691c0-1.912-0.58-2.864-1.785-2.864c-1.207,0-1.788,0.953-1.788,2.864
		v8.691C45.714,37.342,46.295,38.297,47.502,38.297z"/>
	<path d="M70.566,56.937c-1.893,0-3.364,0.696-4.437,2.096c-0.787,1.034-1.146,2.633-1.146,4.818v7.16
		c0,2.173,0.404,3.785,1.191,4.809c1.069,1.397,2.546,2.094,4.482,2.094c1.936,0,3.454-0.732,4.48-2.217
		c0.45-0.654,0.742-1.398,0.866-2.218c0.034-0.371,0.079-1.194,0.079-2.388V70.55h-3.778c0,1.486-0.05,2.308-0.084,2.51
		c-0.211,0.99-0.743,1.486-1.655,1.486c-1.271,0-1.893-0.944-1.893-2.837v-3.625h7.41v-4.233c0-2.186-0.371-3.785-1.146-4.818
		C73.899,57.633,72.424,56.937,70.566,56.937z M72.378,65h-3.704v-1.893c0-1.891,0.621-2.835,1.858-2.835
		c1.228,0,1.846,0.945,1.846,2.835V65z"/>
	<path d="M92,3H8C5.239,3,3,5.239,3,8v84c0,2.761,2.239,5,5,5h84c2.761,0,5-2.239,5-5V8C97,5.239,94.761,3,92,3z M56.111,20.754
		h3.733v15.212c0,0.877,0,1.333,0.046,1.456c0.082,0.579,0.376,0.875,0.877,0.875c0.748,0,1.534-0.58,2.364-1.752V20.754h3.745
		v20.661h-3.745v-2.253c-1.489,1.708-2.911,2.538-4.276,2.538c-1.206,0-2.037-0.489-2.41-1.536
		c-0.207-0.626-0.334-1.613-0.334-3.072V20.754z M41.971,27.491c0-2.208,0.375-3.824,1.171-4.867c1.037-1.414,2.493-2.12,4.36-2.12
		c1.873,0,3.332,0.706,4.367,2.12c0.786,1.043,1.16,2.659,1.16,4.867v7.234c0,2.196-0.374,3.826-1.16,4.859
		c-1.035,1.41-2.494,2.116-4.367,2.116c-1.867,0-3.323-0.706-4.36-2.116c-0.796-1.033-1.171-2.663-1.171-4.859V27.491z
		 M31.959,13.689l2.946,10.888l2.832-10.888h4.198l-4.994,16.497v11.229h-4.15V30.186c-0.376-1.988-1.209-4.903-2.539-8.771
		c-0.876-2.573-1.786-5.154-2.661-7.725H31.959z M79.579,79.437c-0.751,3.26-3.418,5.665-6.626,6.024
		c-7.602,0.85-15.294,0.854-22.955,0.85c-7.662,0.004-15.356,0-22.956-0.85c-3.21-0.359-5.875-2.764-6.626-6.024
		c-1.068-4.642-1.068-9.709-1.068-14.49c0-4.78,0.014-9.849,1.082-14.492c0.75-3.259,3.416-5.665,6.625-6.023
		c7.6-0.849,15.295-0.853,22.955-0.849c7.659-0.004,15.354,0,22.955,0.849c3.209,0.358,5.877,2.764,6.627,6.023
		c1.067,4.643,1.061,9.712,1.061,14.492C80.652,69.728,80.647,74.795,79.579,79.437z"/>
</g>
</svg>
